<svg width="634" height="35" viewBox="0 0 634 35" fill="none" xmlns="http://www.w3.org/2000/svg">
<path d="M17.5 35C27.165 35 35 27.165 35 17.5C35 7.83502 27.165 0 17.5 0C7.83502 0 0 7.83502 0 17.5C0 27.165 7.83502 35 17.5 35Z" fill="#00ADB5"/>
<path d="M315.5 35C325.165 35 333 27.165 333 17.5C333 7.83502 325.165 0 315.5 0C305.835 0 298 7.83502 298 17.5C298 27.165 305.835 35 315.5 35Z" fill="#00ADB5"/>
<path d="M312.051 23C313.961 23 315.102 21.3871 315.102 18.5185C315.102 15.6498 313.913 14 312.051 14C310.165 14 309 15.6867 309 18.5185C309 21.3502 310.105 23 312.051 23ZM310.093 18.5185C310.093 16.0438 310.778 14.8865 312.051 14.8865C313.288 14.8865 313.997 16.0315 313.997 18.5185C313.997 21.0055 313.276 22.1259 312.051 22.1259C310.838 22.1259 310.093 20.9932 310.093 18.5185ZM316.282 22.8153H322V21.8304H317.592C317.676 21.5103 318.144 21.104 318.925 20.5007L319.514 20.0451C321.099 18.814 321.856 17.8906 321.856 16.5978C321.856 14.9973 320.727 14 319.165 14C317.592 14 316.367 15.0711 316.367 16.9179V17.2011H317.448V17.041C317.448 15.6252 318.144 14.8865 319.165 14.8865C320.174 14.8865 320.763 15.6252 320.763 16.6101C320.763 17.7059 319.886 18.4938 319.177 19.0602L318.036 19.959C316.727 20.9808 316.282 21.7073 316.282 22.8153Z" fill="#253141"/>
<path d="M616.5 34.25C625.751 34.25 633.25 26.7508 633.25 17.5C633.25 8.24923 625.751 0.75 616.5 0.75C607.249 0.75 599.75 8.24923 599.75 17.5C599.75 26.7508 607.249 34.25 616.5 34.25Z" stroke="#00ADB5" stroke-opacity="0.5" stroke-width="1.5"/>
<path d="M612.783 21C614.525 21 615.566 19.5663 615.566 17.0164C615.566 14.4665 614.481 13 612.783 13C611.063 13 610 14.4993 610 17.0164C610 19.5335 611.008 21 612.783 21ZM610.997 17.0164C610.997 14.8167 611.622 13.788 612.783 13.788C613.911 13.788 614.558 14.8057 614.558 17.0164C614.558 19.2271 613.9 20.223 612.783 20.223C611.676 20.223 610.997 19.2161 610.997 17.0164ZM619.283 21C620.872 21 622 20.0698 622 18.7346C622 17.7934 621.463 17.0821 620.411 16.7975C621.332 16.4911 621.803 15.8016 621.803 15.0137C621.803 13.8317 620.762 13 619.371 13C617.727 13 616.796 13.9412 616.763 15.3201H617.749C617.771 14.357 618.33 13.788 619.36 13.788C620.225 13.788 620.806 14.2476 620.806 15.0575C620.806 15.9439 620.137 16.4145 619.327 16.4145H618.867V17.2572H619.316C620.247 17.2572 621.003 17.7606 621.003 18.7018C621.003 19.6539 620.291 20.223 619.283 20.223C618.209 20.223 617.618 19.5335 617.618 18.6252H616.642C616.642 20.0479 617.65 21 619.283 21Z" fill="#00ADB5" fill-opacity="0.5"/>
<path d="M299 17H35V18.5H299V17Z" fill="#00ADB5"/>
<path d="M453 16.75H331V18.25H453V16.75Z" fill="#00ADB5"/>
<path d="M599 16.75H477V18.25H599V16.75Z" fill="#00ADB5" fill-opacity="0.5"/>
<path d="M459.218 24.5L466 17.5L459.218 10.5" stroke="#00ADB5" stroke-width="1.5" stroke-miterlimit="10"/>
<path d="M466 17.5H451" stroke="#00ADB5" stroke-width="1.5" stroke-miterlimit="10"/>
<g clip-path="url(#clip0_401_5414)">
<rect width="35" height="35" rx="17.5" fill="#00ADB5"/>
<path fill-rule="evenodd" clip-rule="evenodd" d="M23.541 12.3135L15.1853 20.2073L12.968 17.8883C12.5596 17.5113 11.9177 17.4885 11.4509 17.8083C10.9958 18.1396 10.8674 18.7222 11.1475 19.1906L13.7732 23.3717C14.03 23.7601 14.4734 24 14.9753 24C15.4537 24 15.9088 23.7601 16.1656 23.3717C16.5857 22.8348 24.6029 13.4787 24.6029 13.4787C25.6532 12.4277 24.3812 11.5024 23.541 12.3021V12.3135Z" fill="#253141"/>
</g>
<defs>
<clipPath id="clip0_401_5414">
<rect width="35" height="35" rx="17.5" fill="white"/>
</clipPath>
</defs>
</svg>
