<svg width="634" height="35" viewBox="0 0 634 35" fill="none" xmlns="http://www.w3.org/2000/svg">
<g clip-path="url(#clip0_1_11580)">
<path d="M17.5 35C27.165 35 35 27.165 35 17.5C35 7.83502 27.165 0 17.5 0C7.83502 0 0 7.83502 0 17.5C0 27.165 7.83502 35 17.5 35Z" fill="white"/>
<path d="M14.7108 22C16.4078 22 17.4217 20.5663 17.4217 18.0164C17.4217 15.4665 16.3651 14 14.7108 14C13.0352 14 12 15.4993 12 18.0164C12 20.5335 12.9819 22 14.7108 22ZM12.9712 18.0164C12.9712 15.8167 13.5795 14.788 14.7108 14.788C15.8101 14.788 16.4398 15.8057 16.4398 18.0164C16.4398 20.2271 15.7994 21.223 14.7108 21.223C13.6329 21.223 12.9712 20.2161 12.9712 18.0164ZM20.0608 16.4624V21.8358H21V14.1751H20.2316C19.9861 15.0068 19.1323 15.751 18.2678 15.8495V16.8126C19.0256 16.7798 19.7086 16.2873 20.0608 15.7073V16.4624Z" fill="#1D2939"/>
<path d="M332.25 17.5C332.25 26.7508 324.751 34.25 315.5 34.25C306.249 34.25 298.75 26.7508 298.75 17.5C298.75 8.24923 306.249 0.75 315.5 0.75C324.751 0.75 332.25 8.24923 332.25 17.5Z" stroke="white" stroke-opacity="0.5" stroke-width="1.5"/>
<path d="M311.816 22.3077C313.579 22.3077 314.633 20.8189 314.633 18.1709C314.633 15.5229 313.535 14 311.816 14C310.076 14 309 15.557 309 18.1709C309 20.7848 310.02 22.3077 311.816 22.3077ZM310.009 18.1709C310.009 15.8866 310.641 14.8183 311.816 14.8183C312.958 14.8183 313.612 15.8752 313.612 18.1709C313.612 20.4666 312.947 21.5008 311.816 21.5008C310.696 21.5008 310.009 20.4552 310.009 18.1709ZM315.722 22.1372H321V21.228H316.931C317.008 20.9325 317.441 20.5575 318.162 20.0006L318.705 19.5801C320.168 18.4436 320.867 17.5913 320.867 16.398C320.867 14.9206 319.825 14 318.383 14C316.931 14 315.8 14.9887 315.8 16.6935V16.9549H316.798V16.8071C316.798 15.5002 317.441 14.8183 318.383 14.8183C319.315 14.8183 319.858 15.5002 319.858 16.4093C319.858 17.4208 319.049 18.1482 318.394 18.6709L317.341 19.5006C316.132 20.4439 315.722 21.1144 315.722 22.1372Z" fill="white" fill-opacity="0.5"/>
<path d="M616.5 34.25C625.751 34.25 633.25 26.7508 633.25 17.5C633.25 8.24923 625.751 0.75 616.5 0.75C607.249 0.75 599.75 8.24923 599.75 17.5C599.75 26.7508 607.249 34.25 616.5 34.25Z" stroke="white" stroke-opacity="0.5" stroke-width="1.5"/>
<path d="M612.783 21.3077C614.525 21.3077 615.566 19.8189 615.566 17.1709C615.566 14.5229 614.481 13 612.783 13C611.063 13 610 14.557 610 17.1709C610 19.7848 611.008 21.3077 612.783 21.3077ZM610.997 17.1709C610.997 14.8866 611.622 13.8183 612.783 13.8183C613.911 13.8183 614.558 14.8752 614.558 17.1709C614.558 19.4666 613.9 20.5008 612.783 20.5008C611.676 20.5008 610.997 19.4552 610.997 17.1709ZM619.283 21.3077C620.872 21.3077 622 20.3417 622 18.9552C622 17.9778 621.463 17.2391 620.411 16.9436C621.332 16.6254 621.803 15.9094 621.803 15.0911C621.803 13.8637 620.762 13 619.371 13C617.727 13 616.796 13.9774 616.763 15.4093H617.749C617.771 14.4092 618.33 13.8183 619.36 13.8183C620.225 13.8183 620.806 14.2956 620.806 15.1366C620.806 16.0571 620.137 16.5458 619.327 16.5458H618.867V17.4209H619.316C620.247 17.4209 621.003 17.9437 621.003 18.9211C621.003 19.9098 620.291 20.5008 619.283 20.5008C618.209 20.5008 617.618 19.7848 617.618 18.8415H616.642C616.642 20.319 617.65 21.3077 619.283 21.3077Z" fill="white" fill-opacity="0.5"/>
<path d="M157 17H35V18.5H157V17Z" fill="white"/>
<path d="M599 17H333V18H599V17Z" fill="white" fill-opacity="0.5"/>
<path d="M298 17H183V18H298V17Z" fill="white" fill-opacity="0.5"/>
<path d="M165.218 24.7L172 17.7L165.218 10.7" stroke="white" stroke-width="1.5" stroke-miterlimit="10"/>
<path d="M172 17.7H157" stroke="white" stroke-width="1.5" stroke-miterlimit="10"/>
</g>
<defs>
<clipPath id="clip0_1_11580">
<rect width="634" height="35" fill="white"/>
</clipPath>
</defs>
</svg>
